Coordinates
version=1
nRows=24
nColumns=24
inDegrees=yes

Units are S.I. units (second, meters, Newtons, ...)
Angles are in degrees.

endheader
time	pelvis_tilt	pelvis_list	pelvis_rotation	pelvis_tx	pelvis_ty	pelvis_tz	hip_flexion_r	hip_adduction_r	hip_rotation_r	knee_angle_r	ankle_angle_r	subtalar_angle_r	mtp_angle_r	hip_flexion_l	hip_adduction_l	hip_rotation_l	knee_angle_l	ankle_angle_l	subtalar_angle_l	mtp_angle_l	lumbar_extension	lumbar_bending	lumbar_rotation
      2.44000000	      7.50363820	      7.81540383	     -2.28373352	      0.20220827	      0.99841758	      0.00426951	      5.07264618	     -7.48395003	    -14.70602191	    -16.84046562	      4.94299531	      1.00307336	     -2.80919347	      7.29437277	      6.40757029	     -4.83350461	    -57.58349898	      2.17703030	      3.88064471	     50.27049126	    -22.51074794	     -6.96301317	      1.54695631
      2.44500000	      7.36257938	      7.70193042	     -2.35305380	      0.20678564	      0.99866907	      0.00479527	      4.82025809	     -7.26870582	    -14.53112152	    -16.58528239	      4.97721844	      0.70465529	     -2.78029185	      8.04900952	      6.17557936	     -5.08623970	    -57.60460985	      2.63942860	      3.83267663	     49.61915288	    -22.36942463	     -6.91317363	      1.64972779
      2.45000000	      7.47178539	      7.73615262	     -2.46181509	      0.21168888	      0.99932625	      0.00513044	      4.29536889	     -7.28037190	    -14.48487187	    -16.38448737	      5.17836560	      0.88188485	     -2.79486451	      8.38276804	      6.17737474	     -5.27587880	    -57.35604592	      3.18863597	      3.80421952	     48.02440176	    -22.47803213	     -6.99618593	      1.72357733
      2.45500000	      7.47556939	      7.83053899	     -2.52231746	      0.21643676	      0.99982513	      0.00543481	      3.93556122	     -7.34358232	    -14.34756986	    -16.25851350	      5.31286661	      0.84064774	     -2.79963006	      8.84461593	      6.23433459	     -5.44214278	    -57.05599877	      3.52919034	      3.66078866	     47.97066832	    -22.49555466	     -7.14665931	      1.72668875
      2.46000000	      7.54521292	      7.92942590	     -2.63462435	      0.22126309	      1.00039887	      0.00588335	      3.46645988	     -7.37520588	    -14.07096087	    -16.04688207	      5.50459741	      0.63755123	     -3.25050489	      9.21531347	      6.25988146	     -5.71294406	    -56.68369681	      3.90949942	      3.67234066	     46.76263906	    -22.55931550	     -7.33627833	      1.80586491
      2.46500000	      7.50993151	      8.01773126	     -2.63523561	      0.22589952	      1.00073473	      0.00621580	      3.08218219	     -7.40760955	    -13.98259918	    -15.80571323	      5.62437073	      0.56160293	     -3.26734752	      9.76530731	      6.25894156	     -5.93987588	    -56.35940337	      4.14571310	      3.58390019	     46.72262959	    -22.55035652	     -7.48340762	      1.76332457
      2.47000000	      7.39622303	      8.04837585	     -2.71485126	      0.23043654	      1.00087493	      0.00680836	      2.84246578	     -7.34835121	    -13.77419266	    -15.62153028	      5.74978882	      0.30720601	     -3.68975603	     10.40178713	      6.15261264	     -6.27428133	    -56.04710836	      4.44422207	      3.67676876	     45.93980758	    -22.44221998	     -7.60803636	      1.83688882
      2.47500000	      7.39703486	      8.04881567	     -2.76228510	      0.23494744	      1.00121231	      0.00726448	      2.43500364	     -7.26148931	    -13.56522342	    -15.35776312	      5.77036214	     -0.01520004	     -3.79800269	     10.85212360	      6.07087679	     -6.51610866	    -55.59924506	      4.71291999	      3.45950855	     45.76585530	    -22.47587385	     -7.67321737	      1.90810588
      2.48000000	      7.27171790	      8.10334084	     -2.77160225	      0.23951647	      1.00134470	      0.00757481	      2.18050000	     -7.25055937	    -13.44628121	    -15.14579833	      5.87461354	     -0.22151213	     -4.38174317	     11.40612904	      6.07404300	     -6.68736792	    -55.09667691	      5.18053327	      3.53148339	     44.44917574	    -22.37483586	     -7.78257903	      1.86455891
      2.48500000	      7.24323523	      8.18563370	     -2.79319191	      0.24400086	      1.00167469	      0.00782355	      1.82439884	     -7.28447026	    -13.43797953	    -14.94137709	      5.95225584	     -0.34187702	     -4.40835005	     11.83123457	      6.11445754	     -6.86764171	    -54.48640310	      5.49640228	      3.48486431	     44.40424557	    -22.38479164	     -7.92447793	      1.81867343
      2.49000000	      7.41132564	      8.30102123	     -2.87851755	      0.24879949	      1.00224432	      0.00811552	      1.21228989	     -7.36592538	    -13.45593117	    -14.67288077	      6.13216191	     -0.38490536	     -4.95009968	     11.96252431	      6.20429619	     -7.08998128	    -53.75920660	      5.82318765	      3.58799232	     43.18179144	    -22.57002075	     -8.11391175	      1.83561431
      2.49500000	      7.40891649	      8.44007035	     -3.02366752	      0.25359170	      1.00248123	      0.00849002	      0.86807431	     -7.47993151	    -13.29159295	    -14.55184638	      6.30872556	     -0.41697861	     -5.02864777	     12.31192654	      6.27322850	     -7.42703066	    -53.04871276	      5.99155169	      3.57990844	     43.07734181	    -22.56962269	     -8.35175612	      1.92473520
      2.50000000	      7.33437094	      8.44868073	     -2.97989449	      0.25815350	      1.00257179	      0.00870958	      0.53622110	     -7.43698506	    -13.31089934	    -14.34775133	      6.41323572	     -0.45285844	     -5.04162119	     12.78327995	      6.23190413	     -7.56793892	    -52.38336982	      6.10517090	      3.57132095	     43.03553079	    -22.53167664	     -8.39337999	      1.93817437
      2.50500000	      7.29986953	      8.55034313	     -3.02456821	      0.26262767	      1.00272360	      0.00894602	      0.22256078	     -7.49949435	    -13.16154291	    -14.19481221	      6.57609760	     -0.59958866	     -5.66860229	     13.16664909	      6.28758937	     -7.79469167	    -51.59011882	      6.32719192	      3.69904946	     41.96306490	    -22.54312010	     -8.56970809	      1.93844715
      2.51000000	      7.19755721	      8.63587252	     -2.96009076	      0.26707687	      1.00278933	      0.00881088	     -0.02731204	     -7.57195224	    -13.22686357	    -14.06470553	      6.72359567	     -0.65877132	     -5.69667653	     13.61615556	      6.36944281	     -7.91048032	    -50.76541152	      6.38214522	      3.71220804	     41.93070283	    -22.48927821	     -8.66062310	      1.84610042
      2.51500000	      7.17483170	      8.70267865	     -2.98640102	      0.27174256	      1.00291466	      0.00908785	     -0.35288812	     -7.61862803	    -13.29145844	    -13.96055217	      6.95619968	     -0.60204956	     -5.75900952	     13.91117346	      6.38266057	     -8.14695275	    -49.84806295	      6.39222829	      3.79326519	     41.89852205	    -22.49488245	     -8.79495601	      1.84722056
      2.52000000	      7.13630249	      8.76031059	     -2.93490822	      0.27632607	      1.00300144	      0.00911049	     -0.69472580	     -7.65160936	    -13.34252456	    -13.80671495	      7.08996850	     -0.67397635	     -5.79048501	     14.20962886	      6.43901209	     -8.27060843	    -48.89308969	      6.44700469	      3.76868593	     41.88669774	    -22.49162430	     -8.88103241	      1.80372185
      2.52500000	      7.27333050	      8.81697935	     -2.95555925	      0.28102636	      1.00331430	      0.00922896	     -1.23412029	     -7.70419529	    -13.36058037	    -13.65698613	      7.36262686	     -0.61921082	     -5.85773882	     14.27837965	      6.47146398	     -8.49084153	    -47.87081867	      6.54717668	      3.92647183	     41.59184668	    -22.66752723	     -8.98962595	      1.77491450
      2.53000000	      7.18495869	      8.90999475	     -2.89316872	      0.28551450	      1.00322638	      0.00917993	     -1.46138795	     -7.78905971	    -13.32627218	    -13.63194800	      7.58020729	     -0.73260309	     -5.84033114	     14.60192356	      6.60166241	     -8.54219755	    -46.81363045	      6.51264691	      4.00109733	     41.52793689	    -22.63044255	     -9.10275681	      1.70517778
      2.53500000	      7.11235488	      8.97546866	     -2.87567827	      0.29006829	      1.00314854	      0.00936428	     -1.70125563	     -7.85416427	    -13.45960553	    -13.60277639	      7.79946613	     -0.62066428	     -5.81431537	     14.88243638	      6.65975007	     -8.70057288	    -45.69276556	      6.46811105	      4.08296456	     41.50386997	    -22.60933560	     -9.21304025	      1.69896782
      2.54000000	      7.20403366	      8.99639868	     -2.88995762	      0.29472021	      1.00331723	      0.00954612	     -2.17875706	     -7.87710271	    -13.68291841	    -13.46106788	      8.02262730	     -0.38843185	     -5.79912237	     14.93139875	      6.67947615	     -8.87246180	    -44.49846161	      6.37118091	      4.20500901	     41.45975811	    -22.75080786	     -9.28989792	      1.70002309
      2.54500000	      7.14841930	      9.05555171	     -2.82889791	      0.29928967	      1.00324134	      0.00956407	     -2.45683773	     -7.91350341	    -13.70119619	    -13.39907395	      8.18710133	     -0.57954816	     -5.78603507	     15.14122214	      6.76246668	     -8.97590567	    -43.27659301	      6.23677672	      4.31010280	     41.43460255	    -22.74554307	     -9.37528820	      1.61671129
      2.55000000	      7.34041193	      9.11426925	     -2.86513015	      0.30401915	      1.00354642	      0.00957782	     -3.01624861	     -7.97599595	    -13.64362008	    -13.28643614	      8.32786454	     -0.67085420	     -5.72501879	     14.98802001	      6.84759356	     -9.18316931	    -41.88675534	      6.09957267	      4.49572501	     41.33270529	    -22.97733729	     -9.48210253	      1.59376947
      2.55500000	      7.41736255	      9.15855799	     -2.86366097	      0.30870675	      1.00359966	      0.00955171	     -3.42325311	     -8.03672816	    -13.73726072	    -13.25448561	      8.55231492	     -0.56355802	     -5.64612561	     14.98278797	      6.90725923	     -9.37258282	    -40.55078159	      5.87881873	      4.75664469	     41.17540514	    -23.11142733	     -9.56622956	      1.59074474
